<?xml version="1.0" encoding="UTF-8"?>
<svg id="Layer_2" data-name="Layer 2" xmlns="http://www.w3.org/2000/svg" viewBox="0 0 44.88 41.82">
  <defs>
    <style>
      .cls-1 {
        fill: #231f20;
      }
    </style>
  </defs>
  <g id="Layer_2-2" data-name="Layer 2">
    <path class="cls-1" d="m39.7,8.7c-.25-3.56-3.22-6.39-6.85-6.39s-6.87,3.08-6.87,6.87v11.42c0,2.7-2.2,4.9-4.9,4.9-.07,0-.13,0-.2,0V4.79c0-2.64-2.14-4.79-4.79-4.79H4.79C2.14,0,0,2.14,0,4.79v32.24c0,2.64,2.14,4.79,4.79,4.79h11.31c2.64,0,4.79-2.14,4.79-4.79v-9.56c.07,0,.13,0,.2,0,3.79,0,6.87-3.08,6.87-6.87v-11.42c0-2.7,2.2-4.9,4.9-4.9,2.54,0,4.63,1.94,4.87,4.42-2.91.48-5.14,3.01-5.14,6.06v5.01h2.15v5.86c0,.59.48,1.07,1.07,1.07s1.07-.48,1.07-1.07v-5.86h3.98v5.86c0,.59.48,1.07,1.07,1.07s1.07-.48,1.07-1.07v-5.86h1.9v-5.01c0-3.07-2.25-5.61-5.19-6.07ZM3.13,12.94v-7.25c0-1.32,1.07-2.39,2.39-2.39h9.83c1.32,0,2.39,1.07,2.39,2.39v7.25c0,1.32-1.07,2.39-2.39,2.39H5.52c-1.32,0-2.39-1.07-2.39-2.39Zm10.41,13.65c-1.7,2.36-3.4,4.71-5.1,7.06-.1.14-.2.27-.39.17-.18-.1-.14-.26-.09-.42.52-1.55,1.04-3.1,1.56-4.66.02-.05.04-.11.05-.16.08-.27,0-.4-.29-.41-.54,0-1.09,0-1.63,0-.4,0-.49-.12-.36-.5.66-1.95,1.32-3.91,1.97-5.86.07-.22.2-.3.42-.3.54,0,1.09,0,1.63,0,.54,0,1.09,0,1.63,0,.34,0,.45.18.29.48-.62,1.18-1.25,2.36-1.88,3.54-.21.39-.12.54.33.54.53,0,1.06,0,1.58,0,.13,0,.3.06.36.15.05.07-.02.26-.09.35Z"/>
  </g>
</svg>