<?xml version="1.0" encoding="UTF-8"?>
<svg id="Layer_1" data-name="Layer 1" xmlns="http://www.w3.org/2000/svg" viewBox="0 0 382.39 153.77">
  <defs>
    <style>
      .cls-1 {
        fill: #fff;
      }

      .cls-2 {
        fill: #8362aa;
      }
    </style>
  </defs>
  <rect class="cls-2" width="382.39" height="153.77" rx="17.41" ry="17.41"/>
  <rect class="cls-1" x="124.48" y="15.27" width="241.67" height="124.82" rx="17.41" ry="17.41"/>
  <rect class="cls-2" x="138.13" y="83.05" width="214.38" height="46.19" rx="15.78" ry="15.78"/>
  <path class="cls-1" d="m89.7,27.46h5.63v-6.56c0-3.11-2.52-5.63-5.63-5.63h-51.66c-3.11,0-5.63,2.52-5.63,5.63v6.56h57.29Z"/>
  <path class="cls-1" d="m55.23,104.98l-.12-.12c-.75-.75-1.96-.75-2.71,0l-5.57,5.57c-.75.75-.75,1.96,0,2.71l4.11,4.11c.75.75,1.96.75,2.71,0l5.57-5.57c.75-.75.75-1.96,0-2.71l-1.67-1.67c-1.02-.48-1.84-1.31-2.33-2.33Z"/>
  <path class="cls-1" d="m61.29,107.49l6.82,6.82s.08-.07.12-.11c1.53-1.53,1.53-4.02,0-5.55l-4.01-4.01c-.51,1.33-1.58,2.37-2.93,2.85Z"/>
  <path class="cls-1" d="m64.57,119.09c-.02-.09-.09-.24-.15-.25-.09-.02-.22.05-.29.12-.31.29-.6.59-.9.89-.26.26-.38.22-.49-.12-.31-1.02-.63-2.05-.94-3.07-.08-.26-.24-.3-.43-.11-.31.31-.62.62-.92.92-.31.31-.61.62-.93.92-.13.12-.16.24-.07.41.74,1.48,1.47,2.96,2.21,4.44.14.29.26.3.49.08.31-.31.61-.62.92-.92.16-.16.29-.13.39.07.02.04.04.08.06.12.58,1.17,1.17,2.35,1.75,3.52.06.12.13.24.29.19.16-.05.15-.18.13-.32-.37-2.3-.73-4.59-1.11-6.89Z"/>
  <path class="cls-1" d="m93.3,86.12c-4.05,0-6.1-1.58-8.07-3.1-1.93-1.49-3.75-2.9-7.46-2.9s-5.53,1.41-7.46,2.9c-1.98,1.53-4.02,3.1-8.07,3.1s-6.1-1.58-8.07-3.1c-1.93-1.49-3.75-2.9-7.46-2.9s-5.53,1.41-7.46,2.9c-1.97,1.53-4.02,3.1-8.07,3.1s-6.1-1.58-8.07-3.1c-1.93-1.49-3.75-2.9-7.46-2.9v44.08c0,.16.02.32.02.49,0,.16-.02.32-.02.49,0,8.24,6.68,14.91,14.91,14.91.16,0,.32-.02.49-.02.16,0,.32.02.49.02h61.4c.16,0,.32-.02.49-.02.16,0,.32.02.49.02,8.24,0,14.91-6.68,14.91-14.91,0-.16-.02-.32-.02-.49,0-.16.02-.32.02-.49v-44.08c-3.71,0-5.53,1.41-7.46,2.9-1.98,1.53-4.02,3.1-8.07,3.1Zm-65.35,14.05c0-2.71,2.19-4.9,4.9-4.9s4.9,2.19,4.9,4.9-2.19,4.9-4.9,4.9-4.9-2.19-4.9-4.9Zm9.8,31.05c-2.71,0-4.9-2.19-4.9-4.9s2.19-4.9,4.9-4.9,4.9,2.19,4.9,4.9-2.19,4.9-4.9,4.9Zm42.96-28.14c-.33.33-.88.33-1.21,0l-3.32-3.32-2.26,2.26,3.32,3.32c.33.33.33.88,0,1.21s-.88.33-1.21,0l-3.32-3.32-1.22,1.22-2.84-2.84c-1.73-1.73-1.9-4.42-.52-6.35-1.54-1.26-3.82-1.18-5.26.26-.81.81-1.18,1.89-1.13,2.96,1.61.76,2.73,2.37,2.79,4.25l4.81,4.81c2.15,2.15,2.15,5.64,0,7.79-.04.04-.08.07-.12.11l5.42,5.42c1.5,1.5,1.5,3.93,0,5.42l-6.41,6.41c-1.5,1.5-3.93,1.5-5.42,0l-18.27-18.27c-1.5-1.5-1.5-3.93,0-5.42l6.41-6.41c1.07-1.07,2.62-1.36,3.96-.9.54-2.12,2.45-3.69,4.73-3.69.18,0,.34.03.52.05.06-1.33.58-2.64,1.59-3.65,2.05-2.05,5.34-2.14,7.5-.26,1.93-1.4,4.64-1.24,6.38.5l2.84,2.84-1.08,1.08,3.32,3.32c.33.33.33.88,0,1.21Zm6.58,19.35c-2.71,0-4.9-2.19-4.9-4.9s2.19-4.9,4.9-4.9,4.9,2.19,4.9,4.9-2.19,4.9-4.9,4.9Zm9.26-19.54c-2.71,0-4.9-2.19-4.9-4.9s2.19-4.9,4.9-4.9,4.9,2.19,4.9,4.9-2.19,4.9-4.9,4.9Z"/>
  <path class="cls-1" d="m108.84,63.39c0-8.24-6.68-14.91-14.91-14.91-6.04,0-10.94-4.9-10.94-10.94h-41.04c0,6.04-4.9,10.94-10.94,10.94v.02c-.15,0-.29-.02-.44-.02-8.24,0-14.91,6.68-14.91,14.91,0,.16.02.32.02.49,0,.16-.02.32-.02.49v4.34c4.05,0,6.1,1.58,8.07,3.1,1.93,1.49,3.75,2.9,7.46,2.9s5.53-1.41,7.46-2.9c1.97-1.53,4.02-3.1,8.07-3.1s6.1,1.58,8.07,3.1c1.93,1.49,3.75,2.9,7.46,2.9s5.53-1.41,7.46-2.9c1.98-1.53,4.02-3.1,8.07-3.1s6.1,1.58,8.07,3.1c1.93,1.49,3.75,2.9,7.46,2.9s5.53-1.41,7.46-2.9c1.98-1.53,4.02-3.1,8.07-3.1v-4.34c0-.16-.02-.32-.02-.49,0-.16.02-.32.02-.49Z"/>
  <path class="cls-1" d="m61.29,107.49c1.34-.48,2.41-1.52,2.93-2.85l-2.46-2.46c-1.14-1.14-1.65-2.65-1.59-4.14-.17-.02-.34-.05-.52-.05-2.29,0-4.19,1.57-4.73,3.69.53.18,1.03.47,1.46.9l4.91,4.91Z"/>
  <path class="cls-1" d="m57.56,107.31l-2.33-2.33c.48,1.02,1.31,1.84,2.33,2.33Z"/>
  <path class="cls-1" d="m64.53,102.72c-.06-1.88-1.18-3.49-2.79-4.25.04.94.41,1.87,1.13,2.59l1.66,1.66Z"/>
  <g>
    <path class="cls-2" d="m162.17,74.04c-1.28.6-3.77,1.07-6.85,1.07-11.67,0-17.25-9.6-17.25-22.56,0-17.22,9.56-23.94,18.41-23.94,3.15,0,5.31.64,6.21,1.19l-1.48,7.49c-1.04-.49-2.18-.91-4.13-.91-5.07,0-9.59,4.37-9.59,15.67s4.16,15.17,9.54,15.17c1.49,0,3.2-.33,4.28-.67l.87,7.48Z"/>
    <path class="cls-2" d="m193.23,51.07c0,17.23-6.12,24.19-14.78,24.19-10.33,0-14.42-10.95-14.42-23.49s4.96-23.28,15.08-23.28c11.01,0,14.13,12.12,14.13,22.58Zm-19.95.8c0,10.36,1.92,15.66,5.53,15.66s5.18-6.8,5.18-16.04c0-8.06-1.23-15.29-5.24-15.29-3.54,0-5.46,5.86-5.46,15.66Z"/>
    <path class="cls-2" d="m226.79,58.73c-.23-4.38-.52-10.22-.42-15.15h-.18c-.82,4.9-2.04,10.52-2.89,14.07l-3.97,16.3h-6.3l-3.79-16.05c-.88-3.7-2.09-9.38-2.79-14.33h-.16c-.13,4.98-.46,10.75-.69,15.27l-.77,15.86h-7.62l3.28-45.68h9.38l3.65,16.53c1.27,5.79,2.42,10.84,3.24,16h.15c.7-5.07,1.71-10.22,2.91-16l3.6-16.53h9.38l2.78,45.68h-7.95l-.82-15.97Z"/>
    <path class="cls-2" d="m242.06,29.7c2.52-.54,5.87-.88,9.29-.88,5.29,0,9.44.78,12.42,3.52,2.7,2.41,3.91,6.15,3.91,10.01,0,4.96-1.49,8.45-3.87,11-2.84,3.02-7.43,4.38-11.11,4.38-.6,0-1.19,0-1.79-.03v17.01h-8.85V29.7Zm8.85,20.77c.46.08.93.1,1.48.1,4.47,0,6.46-3.19,6.46-7.46,0-3.98-1.62-7.13-5.74-7.13-.83,0-1.65.14-2.2.34v14.15Z"/>
    <path class="cls-2" d="m299.99,51.07c0,17.23-6.12,24.19-14.78,24.19-10.33,0-14.42-10.95-14.42-23.49s4.96-23.28,15.08-23.28c11.01,0,14.13,12.12,14.13,22.58Zm-19.95.8c0,10.36,1.92,15.66,5.53,15.66s5.18-6.8,5.18-16.04c0-8.06-1.23-15.29-5.24-15.29-3.54,0-5.46,5.86-5.46,15.66Z"/>
    <path class="cls-2" d="m310.08,37.25h-8.06v-8.23h25.07v8.23h-8.11v37.46h-8.9v-37.46Z"/>
    <path class="cls-2" d="m351.11,54.62h-10.41v12.38h11.74v7.71h-20.64V29.03h19.87v7.71h-10.97v10.5h10.41v7.39Z"/>
  </g>
  <g>
    <path class="cls-1" d="m167.77,110.66h-10.49v5.38h11.73v6.39h-19.55v-29.2h18.94v6.39h-11.12v4.71h10.49v6.32Z"/>
    <path class="cls-1" d="m198.06,111.98c-.1-3.31-.17-7.21-.16-11.78h-.12c-.9,3.89-2.13,8.24-3.08,11.45l-2.89,10.18h-6.12l-2.45-10.15c-.75-3.14-1.65-7.46-2.33-11.48h-.09c-.16,4.12-.31,8.47-.44,11.78l-.44,10.45h-7.2l1.8-29.2h10.53l1.93,7.86c.8,3.25,1.67,7.12,2.27,10.7h.15c.81-3.56,1.79-7.69,2.64-10.77l2.19-7.8h10.29l1.46,29.2h-7.59l-.35-10.45Z"/>
    <path class="cls-1" d="m238.29,107.54c0,9.39-5.64,15.37-14.65,15.37s-14.03-6.79-14.03-14.9,5.57-15.25,14.51-15.25c9.39,0,14.17,6.96,14.17,14.78Zm-20.4.32c0,5.49,2.39,8.85,6.13,8.85s6-3.66,6-8.92-2.25-8.84-6.04-8.84-6.09,3.54-6.09,8.91Z"/>
    <path class="cls-1" d="m246.87,99.79h-7.44v-6.56h22.84v6.56h-7.58v22.64h-7.82v-22.64Z"/>
    <path class="cls-1" d="m286.45,121.68c-1.1.54-3.86,1.2-7.35,1.2-10.93,0-15.73-6.8-15.73-14.58,0-10.3,7.55-15.53,16.26-15.53,3.36,0,6.09.63,7.3,1.3l-1.53,6.15c-1.27-.53-3.08-1.05-5.4-1.05-4.49,0-8.38,2.65-8.38,8.63,0,5.3,3.16,8.59,8.52,8.59,1.9,0,4.02-.37,5.23-.83l1.08,6.12Z"/>
    <path class="cls-1" d="m290.68,93.63c2.12-.35,5.19-.63,9.63-.63,4.2,0,7.21.76,9.26,2.33,1.99,1.47,3.33,4.05,3.33,7.03s-.99,5.54-2.84,7.2c-2.36,2.11-5.78,3.05-9.73,3.05-.76,0-1.43-.06-1.91-.1v9.91h-7.74v-28.8Zm7.74,12.89c.42.08.94.11,1.79.11,3.04,0,4.95-1.57,4.95-4.08,0-2.18-1.44-3.65-4.42-3.65-1.15,0-1.92.09-2.32.18v7.44Z"/>
    <path class="cls-1" d="m344.21,107.54c0,9.39-5.64,15.37-14.65,15.37s-14.03-6.79-14.03-14.9,5.57-15.25,14.51-15.25c9.39,0,14.17,6.96,14.17,14.78Zm-20.4.32c0,5.49,2.39,8.85,6.13,8.85s6-3.66,6-8.92-2.25-8.84-6.04-8.84-6.09,3.54-6.09,8.91Z"/>
  </g>
</svg>