<?xml version="1.0" encoding="UTF-8"?>
<svg id="Layer_2" data-name="Layer 2" xmlns="http://www.w3.org/2000/svg" viewBox="0 0 161.61 161.61">
  <defs>
    <style>
      .cls-1 {
        fill: #fff;
      }

      .cls-2 {
        fill: #8362aa;
      }
    </style>
  </defs>
  <g id="Layer_1-2" data-name="Layer 1">
    <rect class="cls-2" x="0" y="0" width="161.61" height="161.61" rx="17.41" ry="17.41"/>
    <path class="cls-1" d="m108.22,30.56h5.63v-6.56c0-3.11-2.52-5.63-5.63-5.63h-51.66c-3.11,0-5.63,2.52-5.63,5.63v6.56h57.29Z"/>
    <path class="cls-1" d="m73.75,108.08l-.12-.12c-.75-.75-1.96-.75-2.71,0l-5.57,5.57c-.75.75-.75,1.96,0,2.71l4.11,4.11c.75.75,1.96.75,2.71,0l5.57-5.57c.75-.75.75-1.96,0-2.71l-1.67-1.67c-1.02-.48-1.84-1.31-2.33-2.33Z"/>
    <path class="cls-1" d="m79.81,110.59l6.82,6.82s.08-.07.12-.11c1.53-1.53,1.53-4.02,0-5.55l-4.01-4.01c-.51,1.33-1.58,2.37-2.93,2.85Z"/>
    <path class="cls-1" d="m83.09,122.19c-.02-.09-.09-.24-.15-.25-.09-.02-.22.05-.29.12-.31.29-.6.59-.9.89-.26.26-.38.22-.49-.12-.31-1.02-.63-2.05-.94-3.07-.08-.26-.24-.3-.43-.11-.31.31-.62.62-.92.92-.31.31-.61.62-.93.92-.13.12-.16.24-.07.41.74,1.48,1.47,2.96,2.21,4.44.14.29.26.3.49.08.31-.31.61-.62.92-.92.16-.16.29-.13.39.07.02.04.04.08.06.12.58,1.17,1.17,2.35,1.75,3.52.06.12.13.24.29.19.16-.05.15-.18.13-.32-.37-2.3-.73-4.59-1.11-6.89Z"/>
    <path class="cls-1" d="m111.82,89.22c-4.05,0-6.1-1.58-8.07-3.1-1.93-1.49-3.75-2.9-7.46-2.9s-5.53,1.41-7.46,2.9c-1.98,1.53-4.02,3.1-8.07,3.1s-6.1-1.58-8.07-3.1c-1.93-1.49-3.75-2.9-7.46-2.9s-5.53,1.41-7.46,2.9c-1.97,1.53-4.02,3.1-8.07,3.1s-6.1-1.58-8.07-3.1c-1.93-1.49-3.75-2.9-7.46-2.9v44.08c0,.16.02.32.02.49,0,.16-.02.32-.02.49,0,8.24,6.68,14.91,14.91,14.91.16,0,.32-.02.49-.02.16,0,.32.02.49.02h61.4c.16,0,.32-.02.49-.02.16,0,.32.02.49.02,8.24,0,14.91-6.68,14.91-14.91,0-.16-.02-.32-.02-.49,0-.16.02-.32.02-.49v-44.08c-3.71,0-5.53,1.41-7.46,2.9-1.98,1.53-4.02,3.1-8.07,3.1Zm-65.35,14.05c0-2.71,2.19-4.9,4.9-4.9s4.9,2.19,4.9,4.9-2.19,4.9-4.9,4.9-4.9-2.19-4.9-4.9Zm9.8,31.05c-2.71,0-4.9-2.19-4.9-4.9s2.19-4.9,4.9-4.9,4.9,2.19,4.9,4.9-2.19,4.9-4.9,4.9Zm42.96-28.14c-.33.33-.88.33-1.21,0l-3.32-3.32-2.26,2.26,3.32,3.32c.33.33.33.88,0,1.21s-.88.33-1.21,0l-3.32-3.32-1.22,1.22-2.84-2.84c-1.73-1.73-1.9-4.42-.52-6.35-1.54-1.26-3.82-1.18-5.26.26-.81.81-1.18,1.89-1.13,2.96,1.61.76,2.73,2.37,2.79,4.25l4.81,4.81c2.15,2.15,2.15,5.64,0,7.79-.04.04-.08.07-.12.11l5.42,5.42c1.5,1.5,1.5,3.93,0,5.42l-6.41,6.41c-1.5,1.5-3.93,1.5-5.42,0l-18.27-18.27c-1.5-1.5-1.5-3.93,0-5.42l6.41-6.41c1.07-1.07,2.62-1.36,3.96-.9.54-2.12,2.45-3.69,4.73-3.69.18,0,.34.03.52.05.06-1.33.58-2.64,1.59-3.65,2.05-2.05,5.34-2.14,7.5-.26,1.93-1.4,4.64-1.24,6.38.5l2.84,2.84-1.08,1.08,3.32,3.32c.33.33.33.88,0,1.21Zm6.58,19.35c-2.71,0-4.9-2.19-4.9-4.9s2.19-4.9,4.9-4.9,4.9,2.19,4.9,4.9-2.19,4.9-4.9,4.9Zm9.26-19.54c-2.71,0-4.9-2.19-4.9-4.9s2.19-4.9,4.9-4.9,4.9,2.19,4.9,4.9-2.19,4.9-4.9,4.9Z"/>
    <path class="cls-1" d="m127.36,66.49c0-8.24-6.68-14.91-14.91-14.91-6.04,0-10.94-4.9-10.94-10.94h-41.04c0,6.04-4.9,10.94-10.94,10.94v.02c-.15,0-.29-.02-.44-.02-8.24,0-14.91,6.68-14.91,14.91,0,.16.02.32.02.49,0,.16-.02.32-.02.49v4.34c4.05,0,6.1,1.58,8.07,3.1,1.93,1.49,3.75,2.9,7.46,2.9s5.53-1.41,7.46-2.9c1.97-1.53,4.02-3.1,8.07-3.1s6.1,1.58,8.07,3.1c1.93,1.49,3.75,2.9,7.46,2.9s5.53-1.41,7.46-2.9c1.98-1.53,4.02-3.1,8.07-3.1s6.1,1.58,8.07,3.1c1.93,1.49,3.75,2.9,7.46,2.9s5.53-1.41,7.46-2.9c1.98-1.53,4.02-3.1,8.07-3.1v-4.34c0-.16-.02-.32-.02-.49,0-.16.02-.32.02-.49Z"/>
    <path class="cls-1" d="m79.81,110.59c1.34-.48,2.41-1.52,2.93-2.85l-2.46-2.46c-1.14-1.14-1.65-2.65-1.59-4.14-.17-.02-.34-.05-.52-.05-2.29,0-4.19,1.57-4.73,3.69.53.18,1.03.47,1.46.9l4.91,4.91Z"/>
    <path class="cls-1" d="m76.08,110.41l-2.33-2.33c.48,1.02,1.31,1.84,2.33,2.33Z"/>
    <path class="cls-1" d="m83.05,105.82c-.06-1.88-1.18-3.49-2.79-4.25.04.94.41,1.87,1.13,2.59l1.66,1.66Z"/>
  </g>
</svg>